<?xml version="1.0" encoding="UTF-8"?>
<svg xmlns="http://www.w3.org/2000/svg" width="258" height="46" viewBox="0 0 258 46">
  <path d="m64.213,33.4732c0,.2578-.1927.4829-.4825.4829h-3.6383c-.2898,0-.5147-.2251-.5147-.4829V12.4947c0-.2578.2249-.4834.5147-.4834h14.5838c.2576,0,.4834.2256.4834.4834v3.1578c0,.2578-.2259.4834-.4834.4834h-10.4631v4.7369h9.0152c.2571,0,.482.2261.482.4834v3.126c0,.29-.2249.5151-.482.5151h-9.0152v8.4758Zm19.8328-17.5304v6.4767h4.5071c1.1918,0,2.1577-.0962,2.8338-.5474.7722-.4834,1.3191-1.3858,1.3191-2.6749s-.482-2.1265-1.223-2.6426c-.7083-.4507-1.5767-.6118-2.5431-.6118h-4.894Zm8.9503,9.7639l4.7642,7.4113c.2264.3867.2586.8379-.2888.8379h-4.0246c-.4508,0-.7083-.0649-.9332-.4829l-4.3144-7.1217h-4.1534v7.1217c0,.2578-.1927.4829-.4825.4829h-3.6383c-.2898,0-.5147-.2251-.5147-.4829V12.4945c0-.2578.2249-.4834.5147-.4834h9.4011c2.1245,0,4.0559.3872,5.5374,1.483,1.6099,1.1919,2.5431,3.2545,2.5431,5.6393,0,2.0943-.7722,3.963-2.4465,5.381-.6435.5479-1.2879.9024-1.964,1.1924h0Zm24.9844-13.6955c.2898,0,.5147.2256.5147.4834v3.1578c0,.2578-.2249.4834-.5147.4834h-11.3968v4.7369h9.7221c.2581,0,.483.2261.483.4834v3.126c0,.29-.2249.5151-.483.5151h-9.7221v4.8663h11.3968c.2898,0,.5147.1929.5147.4829v3.1265c0,.2578-.2249.4829-.5147.4829h-15.5176c-.2898,0-.5152-.2251-.5152-.4829V12.4947c0-.2578.2254-.4834.5152-.4834h15.5176Zm4.3792,20.205c-.2249-.1289-.321-.355-.1927-.6128l1.4811-3.1255c.1283-.2578.3532-.355.6117-.1934,1.4806.9341,3.3475,1.9981,5.8916,1.9981,1.1581,0,1.9952-.2573,2.5104-.645.7083-.5151.9342-1.2559.9342-1.8687,0-1.3208-1.1591-2.0298-2.7372-2.5777-1.7387-.6445-3.9271-1.0635-5.794-2.2237-1.5787-1.0308-2.7363-2.4493-2.7363-4.9952,0-1.8682.7717-3.4796,2.285-4.607,1.3845-1.0313,3.4451-1.6441,6.0526-1.6441,3.3802,0,5.6013.9024,7.0185,1.6758.2571.1289.321.3867.1922.6123l-1.4806,3.126c-.1288.2251-.3537.3218-.6108.1606-1.4821-.8057-3.3163-1.5464-5.3769-1.5464-1.0625,0-1.8674.2256-2.3826.5479-.5474.3862-.8049.9019-.8049,1.482,0,1.1924,1.1596,1.8047,2.8017,2.3521,1.9303.6123,4.2807,1.0318,6.116,2.3204,1.4484.999,2.5119,2.5455,2.5119,4.9303,0,2.1915-.9025,3.899-2.4153,5.0592-1.5133,1.1919-3.6373,1.8375-6.0204,1.8375-3.5729,0-6.1809-1.0645-7.8551-2.0625m39.7932-20.205c.2576,0,.4825.2256.4825.4834v20.9785c0,.2578-.2249.4829-.4825.4829h-3.6695c-.2591,0-.484-.2251-.484-.4829v-8.5075h-9.9796v8.5075c0,.2578-.1937.4829-.4834.4829h-3.6373c-.2903,0-.5152-.2251-.5152-.4829V12.4947c0-.2578.2249-.4834.5152-.4834h3.6373c.2898,0,.4834.2256.4834.4834v8.3781h9.9796v-8.3781c0-.2578.2249-.4834.484-.4834h3.6695Zm12.042,21.4619c0,.2578-.1937.4829-.4834.4829h-3.6368c-.2903,0-.5151-.2251-.5151-.4829V12.4947c0-.2578.2249-.4834.5151-.4834h14.5838c.2576,0,.4825.2256.4825.4834v3.1578c0,.2578-.2249.4834-.4825.4834h-10.4636v4.7369h9.0142c.2576,0,.4835.2261.4835.4834v3.126c0,.29-.2259.5151-.4835.5151h-9.0142v8.4758Zm20.4445-16.2737c-.8371.8701-1.3518,2.127-1.3518,3.8673v2.4488h8.7889v-2.4488c0-1.7403-.5152-2.9971-1.3196-3.8673-.8049-.7735-1.9006-1.1597-3.0914-1.1597-1.1581,0-2.2216.3862-3.026,1.1597h0Zm12.0725,16.2738c0,.2573-.2249.4824-.4825.4824h-3.67c-.2581,0-.483-.2251-.483-.4824v-5.8331h-8.7889v5.8331c0,.2573-.2254.4824-.483.4824h-3.6705c-.2576,0-.4825-.2251-.4825-.4824v-12.6004c0-2.6421,1.0293-5.381,3.2187-7.1857,1.4172-1.1924,3.3485-1.9659,5.795-1.9659,2.4787,0,4.411.7735,5.8277,1.9659,2.2211,1.8047,3.2187,4.5436,3.2187,7.1857v12.6004Zm10.3678-17.5305v6.4767h4.5071c1.1918,0,2.1577-.0962,2.8334-.5474.7727-.4834,1.3196-1.3858,1.3196-2.6749s-.482-2.1265-1.223-2.6426c-.7083-.4507-1.5772-.6118-2.5431-.6118h-4.894Zm8.9498,9.7639l4.7647,7.4113c.2264.3867.2586.8379-.2888.8379h-4.0247c-.4513,0-.7083-.0649-.9332-.4829l-4.3144-7.1217h-4.1534v7.1217c0,.2578-.1927.4829-.4825.4829h-3.6383c-.2898,0-.5147-.2251-.5147-.4829V12.4945c0-.2578.2249-.4834.5147-.4834h9.4011c2.124,0,4.0563.3872,5.5379,1.483,1.6094,1.1919,2.5426,3.2545,2.5426,5.6393,0,2.0943-.7722,3.963-2.4465,5.381-.6439.5479-1.2879.9024-1.9645,1.1924h0Zm31.9705,7.7665c0,.2578-.2259.4829-.5147.4829h-3.4773c-.2903,0-.5151-.2251-.5151-.4829v-13.4061l-4.6676,8.153c-.1937.3545-.3547.5156-.7737.5156h-2.6714c-.3874,0-.5796-.1611-.7732-.5156l-4.7969-8.153v13.4061c0,.2578-.2249.4829-.5152.4829h-3.4768c-.2898,0-.5147-.2251-.5147-.4829V12.4947c0-.2578.2249-.4834.5147-.4834h3.671c.3859,0,.6434.0645.9005.5156l6.2468,10.8596,6.277-10.8596c.2254-.4512.4825-.5156.8693-.5156h3.7027c.2888,0,.5147.2256.5147.4834v20.9785Z" style="fill: #6d635b;"/>
  <path d="m46.1261,46H13.0019c-.4619,0-.8364-.3744-.8364-.8364v-1.8609c0-.4619.3744-.8364.8364-.8364h33.1242c.4619,0,.8364.3744.8364.8364v1.8609c0,.4619-.3744.8364-.8364.8364Zm.8364-6.903v-1.8609c0-.4619-.3744-.8364-.8364-.8364H13.0019c-.4619,0-.8364.3744-.8364.8364v1.8609c0,.4619.3744.8364.8364.8364h33.1242c.4619,0,.8364-.3744.8364-.8364Zm0-18.1999v-1.8609c0-.4619-.3744-.8364-.8364-.8364H13.0019c-.4619,0-.8364.3744-.8364.8364v1.8609c0,.4619.3744.8364.8364.8364h33.1242c.4619,0,.8364-.3744.8364-.8364Zm0-6.0666v-1.8609c0-.4619-.3744-.8364-.8364-.8364H13.0019c-.4619,0-.8364.3744-.8364.8364v1.8609c0,.4619.3744.8364.8364.8364h33.1242c.4619,0,.8364-.3744.8364-.8364Zm0-6.0666v-1.8609c0-.4619-.3744-.8364-.8364-.8364h-8.2422c-.4619,0-.8364.3744-.8364.8364v1.8609c0,.4619.3744.8364.8364.8364h8.2422c.4619,0,.8364-.3744.8364-.8364Zm0-6.0666V.8364C46.9625.3744,46.588,0,46.1261,0h-8.2422C37.422,0,37.0476.3744,37.0476.8364v1.8609c0,.4619.3744.8364.8364.8364h8.2422c.4619,0,.8364-.3744.8364-.8364Zm0,30.3331v-1.8609c0-.4619-.3744-.8364-.8364-.8364h-8.2422c-.4619,0-.8364.3744-.8364.8364v1.8609c0,.4619.3744.8364.8364.8364h8.2422c.4619,0,.8364-.3744.8364-.8364Zm0-6.0666v-1.8609c0-.4619-.3744-.8364-.8364-.8364h-8.2422c-.4619,0-.8364.3744-.8364.8364v1.8609c0,.4619.3744.8364.8364.8364h8.2422c.4619,0,.8364-.3744.8364-.8364Z" style="fill: #84c5bc;"/>
  <path d="m0,45.1636V.8364c0-.4619.3744-.8364.8364-.8364h1.8609c.4619,0,.8364.3744.8364.8364v44.3273c0,.4619-.3744.8364-.8364.8364H.8364c-.4619,0-.8364-.3744-.8364-.8364Zm6.903.8364h1.8609c.4619,0,.8364-.3744.8364-.8364V.8364c0-.4619-.3744-.8364-.8364-.8364h-1.8609c-.4619,0-.8364.3744-.8364.8364v44.3273c0,.4619.3744.8364.8364.8364Zm26.144-21.8217h-1.8609c-.4619,0-.8364.3744-.8364.8364v8.2422c0,.4619.3744.8364.8364.8364h1.8609c.4619,0,.8364-.3744.8364-.8364v-8.2422c0-.4619-.3744-.8364-.8364-.8364Zm-6.0987,0h-1.8609c-.4619,0-.8364.3744-.8364.8364v8.2422c0,.4619.3744.8364.8364.8364h1.8609c.4619,0,.8364-.3744.8364-.8364v-8.2422c0-.4619-.3744-.8364-.8364-.8364Zm-6.0462,0h-1.8609c-.4619,0-.8364.3744-.8364.8364v8.2422c0,.4619.3744.8364.8364.8364h1.8609c.4619,0,.8364-.3744.8364-.8364v-8.2422c0-.4619-.3744-.8364-.8364-.8364Zm-6.0987,0h-1.8609c-.4619,0-.8364.3744-.8364.8364v8.2422c0,.4619.3744.8364.8364.8364h1.8609c.4619,0,.8364-.3744.8364-.8364v-8.2422c0-.4619-.3744-.8364-.8364-.8364ZM33.047,0h-1.8609C30.7242,0,30.3497.3744,30.3497.8364v8.2422c0,.4619.3744.8364.8364.8364h1.8609c.4619,0,.8364-.3744.8364-.8364V.8364C33.8834.3744,33.5089,0,33.047,0ZM26.9483,0h-1.8609C24.6255,0,24.251.3744,24.251.8364v8.2422c0,.4619.3744.8364.8364.8364h1.8609c.4619,0,.8364-.3744.8364-.8364V.8364C27.7846.3744,27.4102,0,26.9483,0ZM20.902,0h-1.8609C18.5792,0,18.2048.3744,18.2048.8364v8.2422c0,.4619.3744.8364.8364.8364h1.8609c.4619,0,.8364-.3744.8364-.8364V.8364C21.7384.3744,21.3639,0,20.902,0ZM14.8033,0h-1.8609C12.4805,0,12.1061.3744,12.1061.8364v8.2422c0,.4619.3744.8364.8364.8364h1.8609c.4619,0,.8364-.3744.8364-.8364V.8364C15.6397.3744,15.2652,0,14.8033,0Z" style="fill: #5da299;"/>
</svg>
